<?xml version="1.0" encoding="UTF-8" standalone="no"?>
<!-- Created with Inkscape (http://www.inkscape.org/) -->

<svg
   width="278.65186mm"
   height="133.20059mm"
   viewBox="0 0 278.65186 133.20059"
   version="1.1"
   id="svg5"
   xml:space="preserve"
   inkscape:version="1.2.2 (b0a8486541, 2022-12-01)"
   sodipodi:docname="drawing.svg"
   xmlns:inkscape="http://www.inkscape.org/namespaces/inkscape"
   xmlns:sodipodi="http://sodipodi.sourceforge.net/DTD/sodipodi-0.dtd"
   xmlns="http://www.w3.org/2000/svg"
   xmlns:svg="http://www.w3.org/2000/svg"><sodipodi:namedview
     id="namedview7"
     pagecolor="#ffffff"
     bordercolor="#000000"
     borderopacity="0.25"
     inkscape:showpageshadow="2"
     inkscape:pageopacity="0.0"
     inkscape:pagecheckerboard="0"
     inkscape:deskcolor="#d1d1d1"
     inkscape:document-units="mm"
     showgrid="false"
     inkscape:zoom="0.69931958"
     inkscape:cx="475.46216"
     inkscape:cy="421.12363"
     inkscape:window-width="1878"
     inkscape:window-height="1011"
     inkscape:window-x="0"
     inkscape:window-y="0"
     inkscape:window-maximized="1"
     inkscape:current-layer="layer1" /><defs
     id="defs2" /><g
     inkscape:label="Layer 1"
     inkscape:groupmode="layer"
     id="layer1"
     transform="translate(-9.5943416,-9.0618883)"><path
       style="fill:#000000;stroke-width:0.17658"
       d="m 148.44132,142.23465 c -3.97519,-0.32743 -6.58296,-1.85267 -7.44057,-4.35189 -0.2071,-0.60351 -0.37655,-1.31551 -0.37655,-1.58221 v -0.48495 h 2.12184 2.12185 l 0.22715,0.85228 c 0.46133,1.73094 2.27906,2.63194 4.94392,2.45053 2.17053,-0.14776 3.3346,-0.92059 3.3346,-2.21388 0,-1.34744 -0.95397,-1.88524 -5.02502,-2.83283 -3.02306,-0.70366 -4.60558,-1.32353 -5.55063,-2.17418 -0.97531,-0.87785 -1.29168,-1.53539 -1.38911,-2.88702 -0.18852,-2.61552 1.32516,-4.46864 4.44225,-5.43848 1.42463,-0.44325 4.31438,-0.52377 5.94047,-0.16552 2.96957,0.65424 4.90177,2.38586 5.15827,4.62284 l 0.10525,0.91767 h -2.14574 -2.14574 l -0.12844,-0.61632 c -0.16362,-0.78499 -1.10002,-1.63796 -2.06211,-1.87837 -0.40467,-0.10115 -1.22562,-0.18431 -1.82436,-0.1848 -1.8336,-9.7e-4 -3.09914,0.79848 -3.09914,1.95922 0,1.28378 0.5814,1.58921 5.03214,2.64364 1.7622,0.41747 3.62108,0.96338 4.13084,1.21312 4.11521,2.016 3.82895,7.37551 -0.49424,9.25332 -1.43732,0.62432 -4.15567,1.0396 -5.87692,0.89783 z m -23.45136,-9.51829 v -9.13021 h 2.23347 2.23346 v 7.45494 7.45494 h 4.93223 4.93223 v 1.67526 1.67528 h -7.16569 -7.1657 z m 33.40413,8.83703 c 0.0705,-0.16124 1.55339,-3.68558 3.29538,-7.83187 1.74199,-4.14629 3.41636,-8.12295 3.72083,-8.83703 l 0.55355,-1.29834 h 2.29327 2.29327 l 3.74217,9.01547 c 2.05819,4.9585 3.74216,9.0694 3.74216,9.13537 0,0.0659 -1.026,0.0988 -2.28,0.0728 l -2.27999,-0.0471 -0.74303,-1.96844 -0.74304,-1.96843 h -3.82906 -3.82907 l -0.43516,1.1308 c -0.23933,0.62194 -0.59585,1.52659 -0.79227,2.01032 l -0.35712,0.87952 h -2.24001 c -2.05807,0 -2.2296,-0.0238 -2.11188,-0.29318 z m 12.38292,-6.86859 c 0.002,-0.26989 -2.47813,-6.57528 -2.5856,-6.57285 -0.10774,0.002 -2.62686,6.30612 -2.62686,6.57331 0,0.0688 1.17257,0.12519 2.6057,0.12519 1.43315,0 2.60618,-0.0566 2.60676,-0.12565 z m -47.80855,-18.50562 c 1.04865,-1.74467 19.44814,-28.563552 19.53516,-28.474213 0.13957,0.143287 3.14588,8.823424 3.14588,9.083088 0,0.153608 -11.50814,14.931495 -14.15756,18.180085 l -0.691,0.84727 -3.23121,0.29564 c -1.77716,0.1626 -3.59646,0.33928 -4.0429,0.39262 l -0.8117,0.0971 z m 51.37231,-0.36069 -3.6009,-0.35739 -0.51056,-0.58634 c -0.57192,-0.6568 -13.77536,-17.470037 -14.16277,-18.03487 -0.22051,-0.321455 -0.0592,-0.85134 1.47902,-4.858276 0.94959,-2.473604 1.78131,-4.546438 1.84826,-4.606296 0.0892,-0.07979 15.15485,21.871352 19.34941,28.192652 l 0.42932,0.64701 -0.61544,-0.0195 c -0.33851,-0.0102 -2.23585,-0.18038 -4.21634,-0.37693 z m -29.44726,-4.14736 -0.9455,-1.6959 3.48568,-7.0227 c 1.9171,-3.862481 3.54497,-6.962912 3.61748,-6.889847 0.38781,0.390859 6.51354,13.537017 6.41576,13.768597 -0.18676,0.44235 -2.37317,3.53574 -2.49906,3.53574 -0.064,0 -0.95144,-1.01505 -1.97207,-2.25568 -1.02064,-1.24062 -1.93946,-2.25184 -2.04183,-2.24717 -0.10239,0.005 -1.2293,1.01973 -2.50429,2.25569 -1.275,1.23593 -2.38398,2.24716 -2.46443,2.24716 -0.0804,0 -0.57171,-0.76316 -1.09174,-1.69589 z m -33.27812,0.72636 c 0.25919,-0.61222 23.71568,-43.089986 23.79457,-43.089986 0.0551,0 1.47539,3.718713 3.15628,8.263809 l 3.05614,8.26382 -10.48121,12.635134 c -5.76466,6.949333 -10.62937,12.776373 -10.81044,12.948973 -0.27093,0.25824 -0.93423,0.3684 -3.74438,0.62187 -1.87832,0.16942 -3.78023,0.35444 -4.22647,0.41115 -0.47985,0.061 -0.78403,0.0387 -0.74449,-0.0548 z m 73.77115,-0.62684 c -2.1497,-0.20996 -3.93147,-0.38898 -3.95947,-0.39785 -0.0707,-0.0224 -21.05504,-25.289937 -21.3196,-25.671239 -0.17676,-0.254754 0.32271,-1.745208 2.85407,-8.516926 1.68758,-4.514478 3.11018,-8.208654 3.16138,-8.209302 0.0714,-8.29e-4 11.44726,20.628972 23.1162,41.920667 0.59985,1.09451 0.6601,1.29504 0.38377,1.27736 -0.18029,-0.0116 -2.08665,-0.19276 -4.23635,-0.40271 z M 148.44132,97.229182 c 0,-0.04126 -3.22456,-8.652623 -7.16568,-19.136302 -3.94114,-10.483692 -7.1657,-19.126478 -7.1657,-19.206191 0,-0.153038 0.33151,-0.122206 4.6963,0.43683 l 2.74205,0.351186 0.0684,3.350537 c 0.0773,3.79226 0.34648,5.054519 1.54198,7.232283 1.87322,3.412351 5.81014,5.07838 9.80095,4.147577 3.7164,-0.866808 6.2256,-3.297168 7.21047,-6.9839 0.50969,-1.907992 0.64976,-4.220431 0.38146,-6.297719 -0.12312,-0.953135 -0.19086,-1.762664 -0.15055,-1.798941 0.10035,-0.09035 7.0563,-0.933792 7.13281,-0.864932 0.0336,0.03034 -3.1309,8.72176 -7.03237,19.314326 l -7.09357,19.259236 -1.13386,-2.133102 c -0.62363,-1.173203 -1.17924,-2.134385 -1.2347,-2.135964 -0.0555,-0.0012 -0.59115,0.979512 -1.19042,2.180208 -0.91903,1.841343 -1.40752,2.634314 -1.40752,2.284868 z M 222.53183,78.652178 216.86907,78.325165 194.79966,67.850986 C 182.66148,62.090177 172.18595,57.106933 171.52068,56.777091 l -1.20957,-0.5997 1.39569,-0.308886 c 2.45554,-0.543443 7.2957,-1.827318 9.10432,-2.414959 l 1.75274,-0.56947 1.03909,0.559081 c 3.60115,1.93757 46.11377,25.310384 46.25743,25.431646 0.23008,0.194214 -0.48769,0.172405 -7.32855,-0.222625 z M 70.558589,78.539893 c 0.169904,-0.143288 46.229681,-25.452966 46.966281,-25.8078 0.27374,-0.131866 0.65208,-0.07432 1.58198,0.240753 1.74498,0.591188 6.05643,1.69701 9.10594,2.335533 l 2.6133,0.547193 -1.19643,0.592734 c -0.65805,0.326012 -11.12534,5.304846 -23.26065,11.064088 L 84.304805,77.983731 77.706226,78.338212 C 70.144468,78.744426 70.322,78.739425 70.558589,78.539893 Z M 240.76929,75.562986 232.87058,74.988698 207.73263,62.574728 C 193.90677,55.74705 182.56575,50.139376 182.53035,50.113225 c -0.0354,-0.02613 0.55089,-0.210966 1.30285,-0.410691 2.16439,-0.574879 6.31269,-2.096734 9.64208,-3.53733 1.6849,-0.729043 3.17551,-1.28683 3.31245,-1.239529 0.2739,0.09456 51.9583,30.864596 52.24321,31.102679 0.10808,0.09035 0.0719,0.140207 -0.0931,0.128343 -0.14842,-0.01023 -3.8243,-0.277848 -8.16858,-0.593711 z M 49.71293,75.351794 C 49.81018,75.267004 61.591842,68.22273 75.894407,59.6979 l 26.004673,-15.499677 3.03037,1.306502 c 3.66943,1.582042 6.24517,2.54169 9.04951,3.371618 1.16082,0.343549 2.04025,0.66106 1.95427,0.705587 -0.086,0.04455 -11.42133,5.64586 -25.18971,12.4474 l -25.033407,12.36643 -7.631,0.54691 c -8.6931,0.623009 -8.606598,0.618782 -8.366183,0.409124 z m 99.56595,-2.593605 c -2.79278,-0.797074 -4.79308,-2.79957 -5.58865,-5.594741 -0.38288,-1.345217 -0.46759,-7.400848 -0.11606,-8.295715 0.13817,-0.351696 0.21211,-0.674651 0.16431,-0.717667 -0.0479,-0.04296 -1.21607,-0.185281 -2.59617,-0.316136 -2.85423,-0.27062 -7.45399,-0.906778 -7.71809,-1.06742 -0.16909,-0.102852 -0.8476,-2.049774 -0.74616,-2.141079 0.0271,-0.02432 1.0094,0.09591 2.18298,0.267164 1.99895,0.291747 6.79221,0.794482 8.46194,0.887515 l 0.74448,0.04148 0.0529,1.800918 0.0529,1.800907 h 1.66229 1.66228 l 0.0531,-1.685225 0.0531,-1.685234 3.2107,-0.03194 3.21069,-0.03194 -1e-4,1.717147 -8e-5,1.717149 h 1.6688 1.6688 l 0.0529,-1.800907 0.0529,-1.800918 0.83754,-0.0442 c 1.6248,-0.08569 6.0766,-0.558048 8.35621,-0.886549 1.26898,-0.182872 2.3322,-0.310033 2.36269,-0.282587 0.0304,0.0275 -0.0751,0.51668 -0.23484,1.08716 -0.1833,0.655013 -0.4024,1.066921 -0.59452,1.117755 -0.63718,0.168587 -5.43156,0.760513 -7.74913,0.956727 -1.33078,0.112626 -2.44548,0.221148 -2.47714,0.241071 -0.0317,0.01989 0.0928,0.4778 0.27673,1.017506 0.27225,0.799221 0.33131,1.541901 0.31825,4.003015 -0.0175,3.298316 -0.1867,4.273845 -1.01804,5.868787 -1.57247,3.016832 -5.23144,4.724319 -8.26712,3.857909 z m 3.71597,-2.292858 c 1.0132,-0.428681 2.2297,-1.587088 2.76836,-2.636142 0.33504,-0.652546 0.40219,-1.090912 0.40219,-2.626103 0,-1.78162 -0.0213,-1.878017 -0.63915,-2.903876 -2.23,-3.702165 -7.29786,-3.54258 -9.29608,0.292725 -0.42424,0.814256 -0.48761,1.15361 -0.48761,2.611151 0,1.454518 0.0637,1.797697 0.48412,2.604316 1.04112,1.997928 2.63816,3.003194 4.77586,3.006206 0.79682,0.0012 1.42679,-0.108989 1.99231,-0.348277 z m 71.2424,-13.512937 C 209.27341,48.775003 197.02776,42.043551 197.0247,41.993626 c -0.004,-0.04989 0.93671,-0.534034 2.08833,-1.075796 3.31192,-1.558018 6.61705,-3.23798 8.26785,-4.202458 l 1.52093,-0.888605 28.63083,17.845199 c 15.74697,9.81487 28.71039,17.913439 28.80765,17.996823 0.10568,0.09058 -2.85664,0.151607 -7.35962,0.151607 h -7.53643 z M 60.317304,53.363535 C 88.971832,35.508119 89.13311,35.4107 89.611274,35.669648 c 0.26445,0.143208 1.443995,0.786629 2.621222,1.429822 1.177216,0.643194 3.673969,1.905532 5.548349,2.805207 l 3.407925,1.635775 -1.17446,0.634943 c -0.645967,0.349219 -12.900173,7.048701 -27.231562,14.887738 l -26.057075,14.252789 -7.610767,9.67e-4 -7.610768,8.87e-4 z M 17.039219,64.879938 c 0,-0.06455 60.781336,-37.612545 61.714961,-38.124758 0.350185,-0.192123 0.61272,-0.06842 2.708358,1.275987 1.276322,0.818803 3.504197,2.165946 4.950843,2.99367 1.446631,0.827713 2.614888,1.516422 2.596114,1.53048 -0.01875,0.0141 -12.424301,7.309003 -27.567838,16.211016 L 33.907958,64.951798 h -8.43437 c -4.638903,0 -8.434369,-0.03227 -8.434369,-0.07183 z M 237.86004,48.479722 c -15.05508,-8.86153 -27.3924,-16.17426 -27.41628,-16.250518 -0.0239,-0.07626 1.31995,-0.971956 2.9863,-1.990439 1.66634,-1.018483 3.69305,-2.300778 4.50377,-2.849552 0.81074,-0.548763 1.57893,-1.033985 1.70711,-1.07825 0.17921,-0.06194 61.73914,37.511352 62.51971,38.159057 0.10138,0.0841 -3.4729,0.141356 -8.37548,0.134151 l -8.55231,-0.01262 -27.37282,-16.111868 z m -92.95503,1.227142 v -9.046437 h 0.93061 0.93061 v 9.046437 9.046448 h -0.93061 -0.93061 z m 9.86447,0 v -9.046437 h 0.9306 0.93062 v 9.046437 9.046448 h -0.93062 -0.9306 z M 9.5943416,57.006808 c 0,-0.08808 60.4171844,-40.637759 60.5484314,-40.637759 0.05203,0 0.149614,0.320394 0.216841,0.711988 0.570814,3.324902 2.663576,5.597267 6.04306,6.561699 l 1.2898,0.368073 -28.232755,16.530708 -28.232756,16.530695 -5.81631,0.0034 c -3.198971,0.0012 -5.8163114,-0.02909 -5.8163114,-0.0683 z M 248.50662,39.035664 220.2603,22.501024 l 1.08224,-0.267517 c 3.27473,-0.809438 5.54423,-3.07606 6.20993,-6.202052 0.12724,-0.597511 0.2521,-1.109822 0.27745,-1.13847 0.0472,-0.05324 59.88777,40.03191 60.38236,40.448022 0.23102,0.194384 -0.62067,0.229296 -5.59341,0.229296 h -5.86595 z m -100.391,16.245927 -0.6049,-0.06751 v -0.994549 -0.994549 h 3.25713 3.25713 v 0.982389 0.982389 l -0.86352,0.106488 c -0.90084,0.111148 -4.00027,0.102169 -5.04584,-0.01466 z m -8.51508,-0.485449 c -5.83345,-0.614713 -12.0941,-1.762881 -17.4824,-3.206181 -3.23958,-0.86774 -3.02335,-0.722565 -3.33894,-2.24201 l -0.12674,-0.610201 1.72631,0.488187 c 6.23416,1.762972 15.55272,3.360266 21.97382,3.766525 l 1.80792,0.114387 v 0.980434 0.980433 l -1.16325,-0.01807 c -0.6398,-0.01023 -2.16832,-0.124013 -3.39672,-0.253459 z m 17.77464,-0.716144 v -0.98773 l 1.53551,-0.115274 c 6.22521,-0.467356 13.3041,-1.64123 19.5882,-3.248287 1.43251,-0.366334 2.62814,-0.644853 2.65695,-0.618918 0.0289,0.02591 -0.004,0.472209 -0.0709,0.991719 l -0.12334,0.944577 -1.70925,0.492825 c -3.8196,1.101288 -8.22947,2.027022 -12.76343,2.679364 -2.92522,0.420874 -7.07376,0.848976 -8.22961,0.849249 l -0.88407,1.93e-4 z m -9.86446,-2.279049 v -0.753863 h 2.96273 c 1.6295,0 3.09522,-0.0458 3.25713,-0.101716 0.24477,-0.08455 0.2944,0.0425 0.2944,0.753864 v 0.855557 h -3.25713 -3.25713 z m -6.7004,0.39727 c -5.22015,-0.47696 -10.21883,-1.26893 -15.35506,-2.432758 -5.51211,-1.249008 -14.98281,-4.190183 -14.98281,-4.652993 0,-0.461299 0.42801,-1.285091 0.62707,-1.206935 2.63907,1.035962 7.4826,2.551054 11.35363,3.55149 6.74426,1.742992 12.3034,2.651622 20.45106,3.342649 l 1.2563,0.106603 v 0.740533 0.740533 l -0.88407,-0.02228 c -0.48624,-0.01227 -1.59599,-0.08728 -2.46612,-0.166813 z m 16.56486,-0.625521 V 50.7581 l 1.62857,-0.113808 c 8.49709,-0.593835 19.59723,-3.009148 28.56039,-6.214545 0.24218,-0.0866 0.38545,0.03557 0.61074,0.520931 0.16188,0.348741 0.2574,0.720701 0.21226,0.826599 -0.0983,0.230604 -4.10918,1.61633 -7.45107,2.574284 -6.35335,1.821193 -13.43487,3.142867 -20.25192,3.779753 -1.50702,0.140788 -2.86802,0.255982 -3.0245,0.255982 -0.21621,0 -0.28447,-0.195464 -0.28447,-0.814598 z m -9.74038,-1.307411 c -0.0683,-0.06148 -0.12408,-0.626829 -0.12408,-1.256452 v -1.144758 h 2.1131 c 1.16221,0 2.62791,-0.04841 3.25713,-0.107625 l 1.14403,-0.107625 v 1.258395 1.258395 l -0.69795,0.103875 c -0.93893,0.139685 -5.53615,0.136332 -5.69223,-0.0045 z m -5.79824,-0.235662 c -6.78599,-0.540046 -13.78984,-1.763789 -20.52033,-3.585426 -3.35152,-0.907095 -9.61892,-2.939016 -9.93057,-3.219523 -0.23148,-0.208352 0.4891,-1.818772 0.79404,-1.774597 0.13587,0.01967 2.17339,0.626714 4.52783,1.348939 8.78658,2.695285 16.38086,4.10223 26.01055,4.818783 l 1.44243,0.107284 v 1.242155 c 0,1.080216 -0.0425,1.239108 -0.3257,1.218799 -0.17914,-0.01284 -1.07835,-0.08331 -1.99825,-0.156459 z m 15.53862,-1.244154 c 0,-1.08432 0.0447,-1.256668 0.32572,-1.258066 0.57878,-0.0023 5.11639,-0.481494 7.07481,-0.74626 6.29122,-0.850522 14.13896,-2.623132 19.73079,-4.4567 1.09822,-0.360107 2.05357,-0.655672 2.12299,-0.656798 0.21088,-0.0034 0.92463,1.883337 0.76609,2.025135 -0.23352,0.208875 -4.92357,1.726911 -7.97557,2.581479 -5.71458,1.600078 -12.43943,2.873816 -18.50851,3.505667 -1.38196,0.143868 -2.74297,0.261676 -3.02448,0.26179 l -0.51184,2.04e-4 z m -9.74038,-1.703193 c -0.0683,-0.06148 -0.12408,-0.626827 -0.12408,-1.256451 v -1.144758 h 3.25713 3.25713 v 1.147417 1.147418 l -1.81469,0.108193 c -2.35225,0.140208 -4.41864,0.139401 -4.57549,-0.0023 z m -4.96326,-0.165926 c -0.35827,-0.03103 -1.6146,-0.137435 -2.79183,-0.236412 -4.84523,-0.40735 -10.45014,-1.307911 -15.63424,-2.512005 -3.05421,-0.709393 -11.14389,-3.081371 -11.6539,-3.417043 -0.27594,-0.181611 -0.26663,-0.285793 0.10808,-1.210914 l 0.41003,-1.012209 1.70584,0.572345 c 8.12043,2.724551 19.2734,4.913203 27.2623,5.349942 l 2.08266,0.113853 v 1.231267 c 0,1.369032 0.14148,1.262497 -1.48898,1.121176 z M 157.37518,45.7206 c 0,-1.288455 0.0764,-1.374589 1.2179,-1.374589 0.99724,0 6.07513,-0.617998 8.92574,-1.086285 3.97509,-0.653024 9.83501,-2.014294 13.8661,-3.221137 1.99615,-0.59761 3.74782,-1.097958 3.89259,-1.11188 0.29805,-0.02864 1.21598,1.899418 0.9924,2.084505 -0.0764,0.06318 -1.39521,0.495337 -2.93071,0.960228 -8.41579,2.547986 -15.61171,3.943781 -24.80076,4.810634 l -1.16326,0.109784 z m 29.89904,-4.71375 c -1.19178,-2.757929 -2.16686,-5.086869 -2.16686,-5.175401 0,-0.08854 0.31408,-0.274404 0.69795,-0.413021 0.57194,-0.206522 0.72337,-0.212113 0.83868,-0.03103 0.0773,0.121581 1.02795,2.281219 2.11236,4.799214 1.0844,2.517994 2.04668,4.751776 2.13841,4.963969 0.14662,0.339183 0.0889,0.415112 -0.47781,0.628226 -0.35451,0.133332 -0.71912,0.242423 -0.81023,0.242423 -0.0912,0 -1.14073,-2.256489 -2.3325,-5.01443 z m -78.80259,4.302047 c -0.33268,-0.09558 -0.60408,-0.257049 -0.6031,-0.35889 0.002,-0.228809 4.20648,-10.311094 4.35566,-10.445369 0.0592,-0.0533 0.44432,0.0034 0.85584,0.125377 0.54478,0.161835 0.72186,0.294452 0.65133,0.48779 -0.67535,1.851242 -4.33173,10.299354 -4.4697,10.327311 -0.10183,0.02068 -0.45733,-0.04069 -0.79003,-0.136219 z m 82.74869,-1.256053 c -0.13421,-0.345526 -0.24541,-0.686289 -0.24707,-0.757251 -0.004,-0.127843 4.28492,-1.96506 4.58631,-1.96506 0.0862,0 0.15674,0.338615 0.15674,0.752465 v 0.752478 l -2.04424,0.922791 c -1.12433,0.507542 -2.08101,0.922802 -2.12596,0.922802 -0.0449,0 -0.19155,-0.2827 -0.32578,-0.628225 z m -86.19193,-0.932668 -2.00082,-0.858829 v -0.802711 -0.80271 l 0.60491,0.235731 c 2.62301,1.02221 4.25197,1.830977 4.15341,2.062138 -0.0588,0.137867 -0.15746,0.432125 -0.2193,0.65391 -0.0618,0.221785 -0.20806,0.396065 -0.32492,0.38728 -0.11686,-0.0091 -1.11284,-0.40244 -2.21328,-0.874809 z m 42.48233,-0.114375 v -1.005164 h 3.25713 3.25713 v 1.005164 1.005152 h -3.25713 -3.25713 z m -8.00324,0.573788 c -7.23849,-0.704881 -14.41095,-2.121373 -21.68322,-4.282249 -2.1497,-0.638762 -4.02285,-1.225119 -4.16255,-1.303002 -0.20986,-0.117024 -0.18847,-0.297941 0.12317,-1.041258 0.21481,-0.512362 0.48439,-0.888765 0.62625,-0.874366 0.13698,0.01387 2.00791,0.553184 4.15762,1.198399 7.70977,2.314064 16.40439,3.939282 23.96321,4.479283 l 1.62855,0.116341 v 0.985343 0.985355 l -1.16325,-0.01864 c -0.6398,-0.01023 -2.2102,-0.120592 -3.48978,-0.245196 z m 17.8677,-0.767514 c 0,-1.119005 -0.31182,-0.996195 3.3502,-1.319492 5.71087,-0.504178 13.59644,-2.066184 19.90674,-3.943213 1.9916,-0.592415 3.67626,-1.077114 3.74368,-1.077114 0.22238,0 0.77961,1.531491 0.61209,1.682269 -0.31068,0.279655 -7.44081,2.309131 -10.76867,3.065132 -5.16823,1.174079 -10.68295,2.052275 -15.21547,2.423007 l -1.62857,0.133208 z m 32.78078,-1.251086 c -0.22196,-0.522067 -0.37873,-0.971547 -0.34838,-0.998868 0.0304,-0.02727 1.01626,-0.422487 2.19093,-0.878161 4.83047,-1.873835 8.99698,-3.794834 13.72186,-6.326535 l 2.27999,-1.221674 -0.002,0.95368 -0.002,0.953693 -2.74303,1.536276 c -1.50866,0.844953 -3.83183,2.083334 -5.16261,2.751951 -2.35106,1.181227 -8.3502,3.853476 -9.13918,4.070943 -0.33979,0.09364 -0.44475,-0.01738 -0.79503,-0.841305 z m -86.3079,-1.378874 c -3.987664,-1.778416 -8.872535,-4.217117 -11.569036,-5.77568 l -1.349382,-0.779936 v -0.922495 c 0,-0.507372 0.03864,-0.922496 0.08592,-0.922496 0.04728,0 1.487602,0.754331 3.200749,1.676303 2.885544,1.552904 9.971129,4.85656 13.311179,6.20634 l 1.4289,0.577459 -0.37171,0.879513 c -0.20445,0.483734 -0.43636,0.879514 -0.51538,0.879514 -0.079,0 -1.97856,-0.818337 -4.22125,-1.818522 z m 43.66266,0.478312 v -0.670105 h -1.6751 -1.67511 v 0.597461 c 0,0.552956 -0.0381,0.593529 -0.51182,0.544467 -0.458,-0.0474 -0.51786,-0.127911 -0.56907,-0.765002 l -0.0572,-0.711985 h 7.64171 7.64169 v 0.670106 c 0,0.368562 -0.077,0.670105 -0.17089,0.670105 -0.094,0 -0.30339,0.0458 -0.46531,0.101716 -0.23492,0.08115 -0.2944,-0.02034 -0.2944,-0.502577 v -0.604268 h -1.6751 -1.67511 v 0.670105 0.670105 h -3.25712 -3.25714 z m -8.00324,-0.904176 c 0,-0.0366 0.5444,-4.889541 1.20979,-10.784324 0.66539,-5.894785 1.20979,-10.791953 1.20979,-10.882602 0,-0.197208 -2.79816,-0.891175 -5.82561,-1.444802 l -2.1878,-0.40008 -0.39008,0.816172 c -0.21454,0.448896 -0.45209,0.816174 -0.52787,0.816174 -0.0758,0 -0.35861,-0.442902 -0.6285,-0.984228 -0.51438,-1.031645 -0.64567,-2.312721 -0.31684,-3.091209 0.32711,-0.774418 2.00599,-1.100216 7.55018,-1.465169 2.96374,-0.195094 2.98566,-0.199512 4.59627,-0.926585 2.00372,-0.904539 3.24392,-1.094227 7.38246,-1.129143 3.04328,-0.02567 3.1156,-0.01797 4.15881,0.443126 1.16986,0.517088 1.80456,1.104703 2.47009,2.286833 0.49821,0.88494 1.02919,2.987311 1.02629,4.06356 -9.6e-4,0.395479 0.67499,5.607535 1.50231,11.582339 0.82734,5.974804 1.4773,10.886371 1.44437,10.914578 -0.033,0.02818 -0.60425,0.07762 -1.26964,0.109671 l -1.20978,0.05842 -0.0568,-0.795755 -0.0568,-0.795743 h -8.80887 -8.80889 l -0.11218,0.376926 c -0.0617,0.207318 -0.11341,0.584255 -0.11476,0.837635 -0.002,0.451138 -0.0257,0.460707 -1.11928,0.460707 -0.61421,0 -1.11672,-0.03 -1.11672,-0.06648 z m 7.69895,-26.414842 c 0.3788,-0.268194 0.49041,-0.494699 0.49041,-0.995273 0,-0.356433 -0.0662,-0.684911 -0.14721,-0.729951 -0.15686,-0.08726 -3.36434,1.148094 -3.65429,1.407441 -0.26279,0.235061 0.97618,0.650915 1.96171,0.658438 0.59545,0.0045 1.00942,-0.09996 1.34938,-0.340655 z m 42.12825,26.271975 c -0.0512,-0.115182 -0.26266,-0.592005 -0.46967,-1.059635 l -0.37637,-0.850215 1.70608,-0.639204 c 2.81644,-1.055214 8.5856,-3.648659 11.75668,-5.285038 5.16629,-2.665976 10.52703,-5.998158 15.49465,-9.631271 l 0.60489,-0.442399 v 1.520116 1.520103 l -2.0008,1.431539 c -6.65936,4.76463 -15.91061,9.632567 -24.86378,13.083137 -1.63589,0.630465 -1.72078,0.646649 -1.85168,0.352867 z m -82.95692,-1.187 C 98.505775,35.158321 90.436885,30.863411 82.981248,25.972858 L 81.065175,24.71601 v -1.084128 c 0,-0.820643 0.05654,-1.054486 0.232653,-0.962181 0.127959,0.06705 1.195833,0.740567 2.373054,1.496682 6.57929,4.225766 14.271867,8.289958 21.235008,11.219019 1.6401,0.689914 3.00869,1.254383 3.04133,1.254383 0.0326,0 0.5278,0.186474 1.10038,0.414396 l 1.04104,0.414408 -0.40357,1.009573 c -0.22197,0.555263 -0.49157,1.00547 -0.59912,1.000458 -0.10751,-0.0045 -1.32623,-0.478516 -2.70819,-1.052236 z m 81.46837,-2.227396 c -0.17948,-0.435865 -0.2619,-0.844487 -0.18315,-0.908039 0.0788,-0.06353 1.31571,-0.583278 2.74885,-1.154941 8.2425,-3.287848 17.39078,-8.387185 23.58718,-13.147712 l 1.43869,-1.105299 -0.64556,-0.908329 c -1.12984,-1.589777 -1.46106,-2.522604 -1.4605,-4.11336 0,-1.733852 0.47026,-2.955192 1.56805,-4.077758 2.21141,-2.2612931 6.23477,-2.3010711 8.46046,-0.08365 0.37919,0.377793 0.90819,1.11057 1.17559,1.628397 0.40894,0.792023 0.48681,1.180879 0.49044,2.449242 0.004,1.313008 -0.0623,1.629803 -0.51131,2.452844 -0.93518,1.714046 -2.82807,2.921353 -5.39992,3.444125 -1.16587,0.236979 -1.50358,0.398405 -2.58318,1.234755 -4.44406,3.442751 -11.3196,7.555551 -18.17197,10.870084 -2.67578,1.294297 -8.91404,3.924462 -9.76286,4.116221 -0.3694,0.08342 -0.46684,-0.0069 -0.75081,-0.696585 z m 32.5047,-18.050096 c 0.88325,-0.33217 1.74662,-1.358399 1.9999,-2.377118 0.31798,-1.278846 -0.0282,-2.414035 -1.01984,-3.34406 -2.1382,-2.00541 -5.40352,-0.48418 -5.40352,2.517358 0,2.427654 2.21723,4.033547 4.42346,3.20382 z M 107.58756,35.743327 C 99.462319,32.472604 90.634588,27.866832 83.262353,23.051889 c -1.963724,-1.282545 -2.000112,-1.297694 -2.698767,-1.123994 -0.389513,0.09683 -1.226292,0.138674 -1.859507,0.09296 -5.10386,-0.36846 -7.813525,-6.418054 -4.622356,-10.319855 1.35923,-1.661913 3.190219,-2.4656008 5.306691,-2.3292978 3.640115,0.2344283 6.373658,3.6570888 5.75445,7.2051288 -0.17138,0.981986 -1.086464,2.938383 -1.756756,3.755845 -0.290234,0.353947 -0.246982,0.392587 1.994867,1.782052 7.351176,4.556154 15.860245,8.867395 23.068805,11.68816 l 2.72344,1.065692 -0.3875,0.969365 c -0.21312,0.533148 -0.43361,0.965966 -0.48997,0.961817 -0.0564,-0.0045 -1.27504,-0.47955 -2.70819,-1.05644 z M 79.749541,18.88525 c 2.939859,-0.758904 3.304027,-5.171679 0.533858,-6.468997 -0.276426,-0.129455 -0.992885,-0.235372 -1.592128,-0.235372 -4.311499,0 -4.957735,5.805477 -0.746321,6.704585 0.864734,0.184613 1.088688,0.184587 1.804591,-1.67e-4 z"
       id="path546" /></g></svg>
