<?xml version="1.0" encoding="UTF-8" standalone="no"?>
<!-- Created with Inkscape (http://www.inkscape.org/) -->

<svg
   width="207.16023mm"
   height="257.65439mm"
   viewBox="0 0 207.16023 257.65439"
   version="1.1"
   id="svg5"
   xml:space="preserve"
   inkscape:version="1.2.2 (b0a8486541, 2022-12-01)"
   sodipodi:docname="TheEnforcerChannel-QR.svg"
   xmlns:inkscape="http://www.inkscape.org/namespaces/inkscape"
   xmlns:sodipodi="http://sodipodi.sourceforge.net/DTD/sodipodi-0.dtd"
   xmlns="http://www.w3.org/2000/svg"
   xmlns:svg="http://www.w3.org/2000/svg"><sodipodi:namedview
     id="namedview7"
     pagecolor="#ffffff"
     bordercolor="#000000"
     borderopacity="0.25"
     inkscape:showpageshadow="2"
     inkscape:pageopacity="0.0"
     inkscape:pagecheckerboard="0"
     inkscape:deskcolor="#d1d1d1"
     inkscape:document-units="mm"
     showgrid="false"
     inkscape:zoom="0.69931958"
     inkscape:cx="392.5244"
     inkscape:cy="556.96996"
     inkscape:window-width="1878"
     inkscape:window-height="1011"
     inkscape:window-x="0"
     inkscape:window-y="0"
     inkscape:window-maximized="1"
     inkscape:current-layer="layer1" /><defs
     id="defs2" /><g
     inkscape:label="Layer 1"
     inkscape:groupmode="layer"
     id="layer1"
     transform="translate(-1.6283638,-1.3800479)"><path
       style="fill:#000000;stroke-width:0.39762"
       d="m 8.0910793,258.43904 c -2.2956285,-0.84311 -4.0359811,-2.37301 -5.3051404,-4.6636 L 1.6283638,251.68622 V 130.21316 8.7401379 L 2.5092852,7.092975 C 2.9937935,6.1870316 4.1329741,4.8100452 5.040781,4.0329985 8.3979696,1.1593563 -0.1076607,1.3841628 105.26439,1.3841628 c 93.86982,0 94.96954,0.00902 97.06417,0.792676 2.26315,0.8467474 4.49345,2.8630924 5.72038,5.1716301 0.71647,1.3480422 0.73966,5.1988921 0.73966,122.8646911 v 121.47306 l -0.92835,1.7401 c -1.19402,2.23809 -2.56183,3.50705 -5.03596,4.672 l -1.98811,0.93611 -95.62771,-0.0242 C 25.067881,258.98994 9.3394997,258.89752 8.0910793,258.43898 Z m 39.3204937,-16.1339 c 3.163265,-1.56853 4.644367,-4.88214 3.718721,-8.31972 -0.876713,-3.25585 -3.516577,-5.18538 -8.190128,-5.9863 -4.53131,-0.77654 -5.596868,-1.69969 -5.258809,-4.55599 0.318988,-2.69506 4.799412,-3.62562 8.840142,-1.83605 1.072576,0.47502 1.974477,0.81678 2.004188,0.75945 0.02976,-0.0573 0.546454,-0.77322 1.148287,-1.59089 l 1.094247,-1.48666 -1.30915,-0.80803 c -2.214626,-1.36692 -5.37436,-2.10183 -8.097134,-1.88327 -4.764487,0.38245 -7.725698,3.23233 -7.724526,7.4341 0.0012,4.43868 2.401637,6.82784 7.808278,7.77172 4.373258,0.76346 5.226152,1.21142 5.771404,3.03132 0.380333,1.26944 0.343545,1.67172 -0.233402,2.55225 -0.807599,1.23256 -2.845795,2.17172 -4.713121,2.17172 -1.761422,0 -5.390019,-1.09559 -6.688904,-2.01959 l -1.03729,-0.73792 -1.231213,1.53208 c -1.147852,1.42835 -1.185302,1.57238 -0.553187,2.12766 0.992941,0.87225 3.822686,2.23264 5.542691,2.66466 2.572327,0.64608 6.945676,0.25213 9.108906,-0.82054 z m 19.353221,0.85874 c 2.937016,-0.68171 5.468722,-3.16314 6.416399,-6.28902 0.257733,-0.85013 0.16534,-0.89466 -1.856746,-0.89466 -1.943548,0 -2.189139,0.10355 -2.833817,1.19491 -1.970209,3.33529 -7.15039,2.97059 -9.008503,-0.63424 -0.443572,-0.86052 -0.596439,-2.53287 -0.596439,-6.52497 0,-4.65182 0.106099,-5.54834 0.795246,-6.72077 1.064386,-1.81076 3.360225,-2.98888 5.164823,-2.65034 1.550381,0.29086 3.615342,1.85882 3.985997,3.02665 0.20509,0.64621 0.612233,0.77778 2.406972,0.77778 2.333876,0 2.444243,-0.14277 1.623945,-2.10028 -0.86923,-2.07426 -2.67216,-3.91297 -4.815463,-4.91102 -3.706263,-1.72585 -7.270224,-1.03738 -10.395994,2.0083 -2.73627,2.66615 -3.045715,3.90746 -2.875475,11.53497 0.126386,5.66629 0.191999,6.09215 1.202073,7.81027 2.180648,3.70926 6.354693,5.40117 10.786982,4.37242 z m 12.180952,-2.70959 1.013831,-2.88191 5.036527,-8e-4 5.036526,-7.9e-4 0.959038,2.88274 0.959038,2.88275 2.056245,0.12023 c 1.130945,0.0661 2.061986,-0.0233 2.068989,-0.19881 0.0075,-0.17544 -2.095409,-6.18375 -4.672034,-13.35179 l -4.684777,-13.0329 -1.744125,0.11016 -1.744125,0.11015 -4.709919,12.92267 c -2.590452,7.10747 -4.713198,13.06621 -4.71721,13.24167 -0.0045,0.17544 0.923182,0.2649 2.060439,0.1988 l 2.067726,-0.12022 z m 2.175569,-7.15801 c 0.121728,-0.38273 0.999057,-3.02073 1.94968,-5.86225 l 1.728405,-5.1664 1.854506,5.56449 c 1.019978,3.06048 1.854507,5.69849 1.854507,5.86224 0,0.16376 -1.711874,0.29775 -3.804187,0.29775 -3.442248,0 -3.783132,-0.0663 -3.582911,-0.69583 z m 22.099055,0.80196 0.19882,-9.23794 5.80768,9.23794 5.80768,9.23795 1.84652,0.12113 1.84649,0.12113 V 230.23638 216.8943 h -1.98077 -1.98077 l -0.1067,9.21926 -0.1067,9.21926 -5.77482,-9.11985 -5.7748,-9.11986 -1.87938,-0.12113 -1.879396,-0.12112 v 13.36385 13.36386 l 1.888696,-0.12113 1.8887,-0.12113 z m 34.2867,1.22388 0.10745,-8.21288 2.72527,6.22477 2.72525,6.22478 h 1.65823 1.6582 l 2.57489,-5.9898 2.57488,-5.98981 0.19881,7.87851 0.19881,7.8785 h 1.9881 1.9881 l 0.10474,-13.24185 0.10475,-13.24184 -2.05067,0.12037 -2.05068,0.12038 -3.31731,7.7536 c -1.82453,4.26449 -3.46317,8.0917 -3.64143,8.50493 -0.24935,0.57801 -1.18879,-1.23332 -4.07291,-7.85302 l -3.74881,-8.60432 h -1.89666 -1.89666 v 13.05521 c 0,7.18036 0.11933,13.17448 0.26508,13.32028 0.14578,0.14578 1.03681,0.26509 1.98003,0.26509 h 1.71495 z m 40.86356,6.22477 v -1.9881 h -6.36192 -6.36193 v -3.77739 -3.7774 h 5.36787 5.36788 v -1.9881 -1.98809 h -5.36788 -5.36787 v -3.77741 -3.77739 h 6.36193 6.36192 v -1.78929 -1.7893 h -8.35003 -8.35003 v 13.32029 13.32029 h 8.35003 8.35003 z m 20.15993,-41.33643 c 2.71917,-1.65797 2.50443,6.49172 2.50443,-95.04738 0,-101.5390883 0.21474,-93.3894 -2.50443,-95.047368 C 197.27774,9.3518146 195.8032,9.3395215 105.28814,9.3380488 3.6604583,9.336546 11.819118,9.1217483 10.161105,11.840991 9.3972079,13.09383 9.3848998,14.568364 9.3834421,105.08341 c -0.0015,101.6277 -0.2163155,93.46902 2.5029419,95.12705 1.252854,0.76393 2.726652,0.77618 93.322086,0.77618 90.59544,0 92.06924,-0.012 93.32209,-0.77618 z M 25.551848,184.81972 c -0.145773,-0.14577 -0.265082,-8.82387 -0.265082,-19.2846 v -19.01951 h 19.284588 19.284602 v 19.28459 19.2846 h -19.01952 c -10.460721,0 -19.138785,-0.11932 -19.284588,-0.26508 z M 58.686881,165.8002 V 152.0823 H 44.770176 30.853457 v 13.7179 13.71791 h 13.916719 13.916705 z m -22.266733,0 v -8.15122 h 8.151206 8.151221 v 8.15122 8.15122 h -8.151221 -8.151206 z m 33.002484,8.15122 v -11.13337 h 2.783353 2.783339 v -8.15122 -8.15122 h -2.783339 -2.783353 v -5.56669 -5.56668 h -2.783338 -2.783338 v 2.78334 2.78334 h -5.566691 -5.56669 v -5.56668 -5.56669 h -5.367869 -5.367883 v -2.78334 -2.78335 h -5.566675 -5.566691 v 2.78335 2.78334 h -2.783338 -2.783353 v -2.78334 -2.78335 h 2.783353 2.783338 v -2.58453 -2.58453 h -2.783338 -2.783353 v -2.78334 -2.78335 h 8.350029 8.350028 v -2.78334 -2.78335 H 33.636795 25.286766 V 96.813055 85.679689 h 2.783353 2.783338 v -2.584546 -2.58453 h -2.783338 -2.783353 v -5.56669 -5.566676 h 11.133382 11.133366 v 2.783338 2.783338 h -2.783338 -2.783353 v 5.367883 5.367883 h -2.783337 -2.783338 v 2.783338 2.783337 h 5.566675 5.566691 v -5.367868 -5.367883 h 8.151221 8.151221 v -2.783338 -2.783352 h -2.783353 -2.783338 v -2.783338 -2.783338 h 2.783338 2.783353 v 2.783338 2.783338 h 2.783338 2.783338 v -2.783338 -2.783338 h 2.783353 2.783339 v -2.783353 -2.783338 h -2.783339 -2.783353 v -2.783338 -2.783353 h 2.783353 2.783339 V 55.460527 52.67719 h -2.783339 -2.783353 v -8.151221 -8.151221 h 2.783353 2.783339 v 2.783338 2.783352 h 2.783338 2.783353 v 2.584531 2.58453 h 2.783338 2.783338 v -5.367868 -5.367883 h 5.367883 5.367868 V 33.59141 30.808063 h 2.783353 2.783345 v 5.566685 5.56669 h 2.78333 2.78334 v -2.783352 -2.783338 h 2.78335 2.78334 v 2.783338 2.783352 h 2.78334 2.78335 v -2.783352 -2.783338 h 2.78334 2.78334 V 33.59141 30.808063 h 2.58453 2.58454 v -2.783338 -2.783338 h 2.78334 2.78334 v 2.783338 2.783338 h 2.78335 2.78334 v 5.566685 5.56669 h -2.78334 -2.78335 v -5.56669 -5.566685 h -2.78334 -2.78334 v 2.783347 2.783338 h -2.58454 -2.58453 v 5.367883 5.367868 h 5.36788 5.36787 v 2.783338 2.783353 h -2.78334 -2.78334 v 5.566675 5.566691 h 2.78334 2.78334 v -2.783338 -2.783353 h 2.78335 2.78334 v 5.566691 5.566691 h 2.78334 2.78335 v 2.783338 2.783338 h 5.56668 5.56669 v -2.783338 -2.783338 h 8.15122 8.15122 v 2.783338 2.783338 h 2.78334 2.78334 v -2.783338 -2.783338 h 2.78335 2.78334 v 2.783338 2.783338 h -2.78334 -2.78335 v 8.15122 8.151221 h -2.78334 -2.78334 v -8.151221 -8.15122 h -2.78335 -2.78334 v 5.367883 5.367883 h -5.36788 -5.36787 v 5.566675 5.566691 h -2.78334 -2.78335 v 2.78334 2.783345 h 5.56669 5.56669 v -2.783345 -2.78334 h 5.36787 5.36788 v 5.566685 5.56668 h 5.56668 5.56669 v 2.78335 2.78334 h -2.78334 -2.78335 v 2.78335 2.78334 h 2.78335 2.78334 v 10.93456 10.93456 h -2.78334 -2.78335 v 5.56669 5.56669 h -2.78334 -2.78334 v 2.58453 2.58453 h 5.56668 5.56669 v 2.78334 2.78335 h -2.78334 -2.78335 v 2.78334 2.78334 h 2.78335 2.78334 v 5.56669 5.56669 h -2.78334 -2.78335 v 2.78334 2.78335 h -2.78334 -2.78334 v -2.78335 -2.78334 h -2.78335 -2.78334 v 2.78334 2.78335 h -2.58453 -2.58453 v -5.56669 -5.56669 h -5.56669 -5.56669 v -2.78334 -2.78335 h -2.78334 -2.78334 v 2.78335 2.78334 h -2.78335 -2.78334 v -5.56669 -5.56668 h -2.78334 -2.78335 v 2.78334 2.78334 h -2.78334 -2.78334 v 2.78335 2.78334 h 2.78334 2.78334 v 2.78335 2.78334 h 11.13338 11.13337 v 2.78334 2.78335 h -16.50125 -16.50125 v -5.56669 -5.56669 h -2.78334 -2.78334 v 2.78335 2.78334 h -2.78335 -2.78334 v -2.78334 -2.78335 h -2.78334 -2.78335 v -2.78334 -2.78335 h -2.78334 -2.78333 v 2.78335 2.78334 h -2.783345 -2.783353 v -2.78334 -2.78335 h -2.783338 -2.783338 v 5.56669 5.56669 h -8.151221 -8.151221 v 2.78334 2.78335 h -2.783339 -2.783353 z m 110.140858,0 v -5.56669 h -2.78334 -2.78334 v 5.56669 5.56669 h 2.78334 2.78334 z m -99.007475,-2.78334 v -2.78335 h -2.783353 -2.783338 v 2.78335 2.78334 h 2.783338 2.783353 z m 21.869125,-8.35003 v -5.56669 h 2.78333 2.78334 v -2.58453 -2.58453 h 2.78335 2.78334 v 2.58453 2.58453 h 2.78334 2.78335 v -2.58453 -2.58453 h 2.78334 2.78334 v 8.15122 8.15121 h 2.58453 2.58454 v -2.78334 -2.78334 h 2.78334 2.78334 v -10.93456 -10.93457 h -5.36787 -5.36788 v -2.78334 -2.78334 h 2.58453 2.58454 v -2.78335 -2.78334 h 2.78334 2.78334 v 2.78334 2.78335 h 5.56669 5.56669 v -2.78335 -2.78334 h 2.78334 2.78334 v 2.78334 2.78335 h 5.56669 5.56669 v 5.56668 5.56669 h 2.58453 2.58453 v 2.78334 2.78335 h 2.78334 2.78335 v -5.56669 -5.56669 h 2.78334 2.78334 v -5.56668 -5.56669 h -2.78334 -2.78334 v 5.56669 5.56668 h -2.78335 -2.78334 v -5.56668 -5.56669 h -2.58453 -2.58453 v -2.78334 -2.78335 h 5.36787 5.36788 v -2.58453 -2.58453 h -2.78335 -2.78334 v -2.78334 -2.78335 h 2.78334 2.78335 v -2.78334 -2.78335 h -2.78335 -2.78334 v -2.78334 -2.78334 h -2.58453 -2.58453 v 8.35003 8.35003 h -2.78335 -2.78334 v -2.78334 -2.78335 h -2.78334 -2.78335 v 2.78335 2.78334 h 2.78335 2.78334 v 5.36788 5.36787 h -2.78334 -2.78335 v -2.78334 -2.78335 h -5.56668 -5.56669 v 2.78335 2.78334 h -2.78334 -2.78335 v -2.78334 -2.78335 h -2.78334 -2.78334 v -2.58453 -2.58453 h 8.35003 8.35003 v -5.56669 -5.56669 h -2.78335 -2.78334 v -2.78334 -2.78334 h 2.78334 2.78335 v -5.566685 -5.566691 h 2.78334 2.78334 v -2.783337 -2.783338 h 2.78335 2.78334 v -2.584546 -2.58453 h -5.56669 -5.56668 v -2.783338 -2.783352 h -2.78335 -2.78334 v 8.15122 8.151221 h -2.78334 -2.78335 v -8.151221 -8.15122 h -5.36787 -5.36788 v -2.783338 -2.783338 h 2.58453 2.58454 v -2.783353 -2.783338 h -2.58454 -2.58453 v -2.783338 -2.783353 h -2.78334 -2.78334 v 8.350029 8.350029 h -2.78335 -2.78334 v -8.350029 -8.350029 h -2.78334 -2.78335 v 5.566691 5.566691 h -2.78334 -2.78333 v 2.783338 2.783338 h -2.783345 -2.783353 v -5.566676 -5.566691 h 2.783353 2.783345 v -8.350029 -8.350028 h -2.783345 -2.783353 v -2.58453 -2.584531 h -2.783338 -2.783338 v 5.367868 5.367884 h -5.367883 -5.367868 v 2.783337 2.783338 h -2.783353 -2.783338 v 2.783353 2.783338 h 2.783338 2.783353 v 2.783338 2.783353 h -2.783353 -2.783338 v 2.783338 2.783338 h -2.783339 -2.783353 v 2.783352 2.783338 h -2.783338 -2.783338 v 2.58453 2.584546 h -2.783353 -2.783338 v 2.783338 2.783337 h -2.783338 -2.783352 v 2.783353 2.783338 h -2.584531 -2.58453 v 2.78334 2.783345 h -2.783338 -2.783353 v -2.783345 -2.78334 h -2.783337 -2.783338 v -2.783338 -2.783353 h -2.783353 -2.783338 v 2.783353 2.783338 h 2.783338 2.783353 v 2.78334 2.783345 h 2.783338 2.783337 v 2.78334 2.78334 h 2.783353 2.783338 v 2.78335 2.78334 h 2.58453 2.584531 v -8.35003 -8.350025 h 2.783352 2.783338 v 2.78334 2.783345 h 5.566691 5.566676 v 2.78334 2.78334 h -5.566676 -5.566691 v 2.78335 2.78334 h 8.350029 8.35003 v 2.78335 2.78334 h -2.783339 -2.783353 v 5.36788 5.36787 h 5.566692 5.566691 v 2.78334 2.78335 h -2.783353 -2.783338 v 2.78334 2.78334 h 2.783338 2.783353 v 2.78335 2.78334 h 5.367868 5.367883 v -2.78334 -2.78335 h -5.367883 -5.367868 v -2.78334 -2.78334 h 5.367868 5.367883 v -2.78335 -2.78334 h -2.584545 -2.58453 v -2.78334 -2.78335 h 2.58453 2.584545 v -2.58453 -2.58453 h 5.566676 5.566698 v -2.78334 -2.78335 h 2.78333 2.78334 v 2.78335 2.78334 h 2.78335 2.78334 V 107.94642 96.813055 h -2.78334 -2.78335 v -5.566691 -5.566675 h 2.78335 2.78334 v 2.783338 2.783337 h 2.78334 2.78335 v -2.783337 -2.783338 h 2.78334 2.78334 v 5.566675 5.566691 h 8.15122 8.15122 v 2.78334 2.783345 h -2.78334 -2.78335 v 2.78334 2.78334 h 2.78335 2.78334 v 2.78335 2.78334 h -8.15122 -8.15122 v -5.56669 -5.56668 h -2.78334 -2.78334 v 5.56668 5.56669 h 2.78334 2.78334 v 2.78335 2.78334 h -2.78334 -2.78334 v 2.58453 2.58453 h -2.78335 -2.78334 v 2.78335 2.78334 h 5.56669 5.56668 v 2.78334 2.78335 h -2.78334 -2.78334 v 2.78334 2.78334 h -2.78335 -2.78334 v -2.78334 -2.78334 h -5.56669 -5.56667 v -2.78335 -2.78334 h -2.783345 -2.783353 v 2.78334 2.78335 h 2.783353 2.783345 v 2.78334 2.78334 h -2.783345 -2.783353 v 2.78335 2.78334 h 2.783353 2.783345 v 2.78334 2.78335 H 91.490574 80.556015 v 5.36787 5.36788 h 5.367868 5.367883 v -2.78335 -2.78334 h 2.783338 2.783338 v 5.56669 5.56668 h 2.783353 2.783345 z m 11.13336,-13.5191 v -2.78334 h 2.78334 2.78335 v 2.78334 2.78335 h -2.78335 -2.78334 z m 11.13337,0 v -2.78334 h 2.58453 2.58454 v 2.78334 2.78335 h -2.58454 -2.58453 z m -22.26673,-5.56668 v -2.78335 h 2.78333 2.78334 v 2.78335 2.78334 h -2.78334 -2.78333 z M 74.989324,121.66433 v -2.58453 h 2.783338 2.783353 v 2.58453 2.58453 h -2.783353 -2.783338 z m 11.133367,-5.36787 v -2.78335 h -2.783338 -2.783338 v -2.78334 -2.78335 h 2.783338 2.783338 v 2.78335 2.78334 h 2.58453 2.584545 v -5.56669 -5.56668 H 80.357192 69.422632 v -2.783345 -2.78334 h -5.566676 -5.566691 v -2.783338 -2.783353 h 2.783338 2.783353 v -2.783337 -2.783338 h 5.566676 5.566692 v 2.783338 2.783337 h 2.783338 2.783353 v 2.783353 2.783338 h 2.783338 2.783338 v -5.566691 -5.566675 h 5.367883 5.367868 v -2.584546 -2.58453 h 2.783353 2.783345 v -2.783338 -2.783352 h 2.78333 2.78334 v 2.783352 2.783338 h -2.78334 -2.78333 v 8.151221 8.151221 h -2.783345 -2.783353 v -2.783338 -2.783353 h -2.783338 -2.783338 v 5.566691 5.566685 h 2.783338 2.783338 v 2.78334 2.78334 h 2.783353 2.783345 v -2.78334 -2.78334 h 2.78333 2.78334 v 2.78334 2.78334 h -2.78334 -2.78333 v 2.78335 2.78334 h -5.566698 -5.566676 v 2.78335 2.78334 h -2.584545 -2.58453 z M 113.5585,83.095143 v -2.58453 h 2.78334 2.78335 v 2.58453 2.584546 h -2.78335 -2.78334 z M 74.989324,77.727275 v -2.783352 h 2.783338 2.783353 v 2.783352 2.783338 H 77.772662 74.989324 Z M 86.122691,66.593894 v -2.783338 h -2.783338 -2.783338 v -2.783338 -2.783353 h 2.783338 2.783338 v 2.783353 2.783338 h 2.58453 2.584545 V 58.243865 52.67719 h 2.783338 2.783338 v 5.566675 5.566691 h -2.783338 -2.783338 v 2.783338 2.783353 h -2.584545 -2.58453 z m 71.571679,99.007496 v -2.78334 h -2.78334 -2.78335 v 2.78334 2.78334 h 2.78335 2.78334 z m 10.73575,-2.78334 v -5.56669 h -2.58453 -2.58453 v 5.56669 5.56668 h 2.58453 2.58453 z m -10.73575,-13.71791 v -8.15122 h -8.35003 -8.35003 v 8.15122 8.15122 h 8.35003 8.35003 z m -11.13337,0.19881 v -2.78334 h 2.78334 2.78334 v 2.78334 2.78335 H 149.34434 146.561 Z M 63.855956,132.59889 v -2.78334 h -2.783353 -2.783338 v -2.78334 -2.78335 h 2.783338 2.783353 v -2.58453 -2.58453 h -2.783353 -2.783338 v 2.58453 2.58453 h -2.783338 -2.783352 v 2.78335 2.78334 h 2.783352 2.783338 v 2.78334 2.78335 h 2.783338 2.783353 z M 47.553514,121.66433 v -2.58453 h -2.783338 -2.783353 v 2.58453 2.58453 h 2.783353 2.783338 z M 36.420148,77.727275 v -2.783352 h -2.783353 -2.783338 v 2.783352 2.783338 h 2.783338 2.783353 z M 102.42514,182.30145 v -2.78334 h 2.78333 2.78334 v 2.78334 2.78335 h -2.78334 -2.78333 z M 30.853457,138.16558 v -2.78334 h 2.783338 2.783353 v 2.78334 2.78334 H 33.636795 30.853457 Z M 25.286766,44.525969 V 25.241387 H 44.571354 63.855956 V 44.525969 63.810556 H 44.571354 25.286766 Z m 33.400115,0 V 30.808063 H 44.770176 30.853457 v 13.717906 13.717896 h 13.916719 13.916705 z m -22.266733,0 v -8.151221 h 8.151206 8.151221 v 8.151221 8.151221 h -8.151221 -8.151206 z m 110.140852,0 V 25.241387 h 19.28459 19.28459 V 44.525969 63.810556 H 165.84559 146.561 Z m 33.00249,0 V 30.808063 h -13.7179 -13.71791 v 13.717906 13.717896 h 13.71791 13.7179 z m -21.86912,0 v -8.151221 h 8.15122 8.15122 v 8.151221 8.151221 h -8.15122 -8.15122 z M 69.422632,28.024725 v -2.783338 h 5.566692 5.566691 v 2.783338 2.783338 h -5.566691 -5.566692 z m 44.135868,0 v -2.783338 h 2.78334 2.78335 v 2.783338 2.783338 h -2.78335 -2.78334 z"
       id="path337" /></g></svg>
