<?xml version="1.0" encoding="UTF-8" standalone="no"?>
<!-- Created with Inkscape (http://www.inkscape.org/) -->

<svg
   width="137.84792mm"
   height="171.44759mm"
   viewBox="0 0 137.84792 171.44759"
   version="1.1"
   id="svg5"
   xml:space="preserve"
   inkscape:version="1.2.2 (b0a8486541, 2022-12-01)"
   sodipodi:docname="TheLeafSpringArmy-origin-QR.svg"
   xmlns:inkscape="http://www.inkscape.org/namespaces/inkscape"
   xmlns:sodipodi="http://sodipodi.sourceforge.net/DTD/sodipodi-0.dtd"
   xmlns="http://www.w3.org/2000/svg"
   xmlns:svg="http://www.w3.org/2000/svg"><sodipodi:namedview
     id="namedview7"
     pagecolor="#ffffff"
     bordercolor="#000000"
     borderopacity="0.25"
     inkscape:showpageshadow="2"
     inkscape:pageopacity="0.0"
     inkscape:pagecheckerboard="0"
     inkscape:deskcolor="#d1d1d1"
     inkscape:document-units="mm"
     showgrid="false"
     inkscape:zoom="0.69931958"
     inkscape:cx="250.95822"
     inkscape:cy="382.51467"
     inkscape:window-width="1878"
     inkscape:window-height="1011"
     inkscape:window-x="0"
     inkscape:window-y="0"
     inkscape:window-maximized="1"
     inkscape:current-layer="layer1" /><defs
     id="defs2" /><g
     inkscape:label="Layer 1"
     inkscape:groupmode="layer"
     id="layer1"
     transform="translate(-38.829527,-47.679238)"><path
       style="fill:#000000;stroke-width:0.264583"
       d="m 43.129932,218.73064 c -1.527551,-0.56102 -2.685612,-1.57904 -3.530127,-3.10324 l -0.770278,-1.3902 V 133.40699 52.576776 l 0.586187,-1.09606 c 0.322403,-0.60282 1.080425,-1.5191 1.684494,-2.03616 2.233934,-1.91216 -3.42586,-1.76258 66.690492,-1.76258 62.46256,0 63.19433,0.006 64.58813,0.52747 1.50594,0.56344 2.99002,1.90515 3.80645,3.44128 0.47674,0.89702 0.49217,3.45944 0.49217,81.756264 v 80.83021 l -0.61774,1.15789 c -0.79452,1.48927 -1.70468,2.33365 -3.35101,3.10883 l -1.32292,0.6229 -63.63229,-0.0161 c -53.326911,-0.0135 -63.792833,-0.075 -64.623558,-0.38012 z M 69.29445,207.99487 c 2.104892,-1.04373 3.090444,-3.24866 2.474505,-5.53608 -0.583378,-2.1665 -2.339994,-3.45044 -5.449854,-3.98338 -3.01521,-0.51673 -3.72425,-1.13101 -3.499295,-3.03164 0.212257,-1.79334 3.193606,-2.41255 5.882382,-1.22174 0.713711,0.31609 1.313841,0.5435 1.333619,0.50535 0.01976,-0.0381 0.363617,-0.51451 0.764085,-1.0586 l 0.728128,-0.98925 -0.871122,-0.53768 c -1.473656,-0.90957 -3.576199,-1.39859 -5.387973,-1.25316 -3.170368,0.25449 -5.140811,2.15085 -5.140028,4.94678 8.21e-4,2.95358 1.598088,4.54336 5.19576,5.17143 2.910041,0.50802 3.477564,0.80611 3.840385,2.01709 0.253082,0.84471 0.228602,1.11239 -0.155305,1.69831 -0.537393,0.82017 -1.893647,1.4451 -3.136189,1.4451 -1.17208,0 -3.586613,-0.72902 -4.450917,-1.34387 l -0.69023,-0.49102 -0.819264,1.01947 c -0.763805,0.95045 -0.788723,1.04629 -0.368103,1.41578 0.660719,0.58041 2.543675,1.48564 3.688197,1.77311 1.711677,0.42991 4.621769,0.16777 6.061219,-0.546 z m 12.87797,0.57142 c 1.95434,-0.45362 3.63897,-2.10481 4.26957,-4.18482 0.17151,-0.56569 0.11002,-0.59532 -1.2355,-0.59532 -1.29328,0 -1.4567,0.0689 -1.88567,0.79511 -1.31101,2.21936 -4.758,1.97669 -5.99442,-0.42202 -0.29515,-0.57262 -0.39687,-1.68543 -0.39687,-4.34184 0,-3.0954 0.0706,-3.69196 0.52916,-4.47211 0.70826,-1.20491 2.23596,-1.98885 3.43676,-1.76358 1.03165,0.19354 2.40571,1.23689 2.65235,2.01398 0.13648,0.43001 0.40739,0.51755 1.60164,0.51755 1.55301,0 1.62645,-0.095 1.0806,-1.39756 -0.5784,-1.38025 -1.7781,-2.60375 -3.20428,-3.26787 -2.46621,-1.14842 -4.83773,-0.69029 -6.91768,1.33635 -1.820755,1.7741 -2.026662,2.60009 -1.913386,7.67557 0.08415,3.77044 0.127762,4.05381 0.799875,5.19708 1.451041,2.4682 4.228531,3.59404 7.177851,2.90948 z m 8.1054,-1.80301 0.67462,-1.91767 3.35139,-5.3e-4 3.35139,-5.3e-4 0.63816,1.91823 0.63816,1.91823 1.36826,0.08 c 0.75255,0.044 1.37208,-0.0156 1.37674,-0.1323 0.005,-0.11674 -1.39432,-4.11477 -3.10885,-8.88451 l -3.11733,-8.67231 -1.16057,0.0733 -1.16057,0.0733 -3.13405,8.59895 c -1.72373,4.72943 -3.13624,8.69448 -3.13891,8.81123 -0.003,0.11674 0.6143,0.17627 1.37104,0.13229 l 1.3759,-0.08 z m 1.44766,-4.76306 c 0.081,-0.25466 0.6648,-2.01004 1.29736,-3.90083 l 1.15011,-3.43782 1.23402,3.70271 c 0.67871,2.03649 1.23402,3.79187 1.23402,3.90083 0,0.10897 -1.13912,0.19813 -2.53138,0.19813 -2.29053,0 -2.51736,-0.0441 -2.38413,-0.46302 z m 14.70509,0.53365 0.13229,-6.14708 3.86454,6.14708 3.86453,6.14708 1.2287,0.0806 1.22869,0.0806 v -8.87804 -8.87804 h -1.31804 -1.31804 l -0.071,6.13465 -0.071,6.13466 -3.84266,-6.06851 -3.84265,-6.0685 -1.25058,-0.0806 -1.25057,-0.0806 v 8.89254 8.89253 l 1.25677,-0.0806 1.25677,-0.0806 z m 22.81495,0.81438 0.0715,-5.46498 1.81344,4.14206 1.81343,4.14207 h 1.1034 1.10341 l 1.71337,-3.98571 1.71337,-3.98572 0.13229,5.24249 0.13229,5.24249 h 1.32292 1.32291 l 0.0697,-8.81135 0.0697,-8.81135 -1.36455,0.0801 -1.36456,0.0801 -2.2074,5.15937 c -1.21406,2.83766 -2.30444,5.38435 -2.42306,5.65932 -0.16592,0.38462 -0.79104,-0.82067 -2.71018,-5.22552 l -2.49452,-5.72547 h -1.26207 -1.26207 v 8.68716 c 0,4.77793 0.0794,8.76653 0.17639,8.86354 0.097,0.097 0.6899,0.17639 1.31754,0.17639 h 1.14116 z m 27.1913,4.14207 v -1.32292 h -4.23333 -4.23333 v -2.51354 -2.51354 h 3.57187 3.57188 v -1.32292 -1.32291 h -3.57188 -3.57187 v -2.51354 -2.51355 h 4.23333 4.23333 v -1.19062 -1.19063 h -5.55625 -5.55625 v 8.86355 8.86354 h 5.55625 5.55625 z m 13.41476,-27.50596 c 1.80938,-1.10324 1.66649,4.31971 1.66649,-63.24613 0,-67.565824 0.14289,-62.142884 -1.66649,-63.246124 -0.83365,-0.50831 -1.81483,-0.5165 -62.04509,-0.51747 -67.624771,-10e-4 -62.195853,-0.14394 -63.299132,1.6655 -0.50831,0.83366 -0.516493,1.81483 -0.517466,62.045094 -0.0011,67.62477 -0.143937,62.19586 1.665502,63.29913 0.833673,0.50833 1.814362,0.51648 62.098096,0.51648 60.28373,0 61.26442,-0.008 62.09809,-0.51648 z M 53.778486,159.33615 V 147.95907 H 65.15557 76.53265 v 11.37708 11.37709 H 65.15557 53.778486 Z m 19.579167,0 v -8.20208 H 65.15557 56.953486 v 8.20208 8.20209 h 8.202084 8.202083 z m -13.229167,0 v -5.02708 h 4.894792 4.894792 v 5.02708 5.02709 h -4.894792 -4.894792 z m 19.843754,4.89479 v -6.48229 h 1.5875 1.5875 v -1.71979 -1.71979 h 1.5875 1.5875 v 3.30729 3.30729 h 1.71979 1.71979 v 1.71979 1.7198 h -3.30729 -3.30729 v 3.175 3.175 h -1.5875 -1.5875 z m 16.40416,4.8948 v -1.5875 h 1.5875 1.5875 v 1.5875 1.5875 h -1.5875 -1.5875 z m 9.78959,0 v -1.5875 h -1.71979 -1.7198 v -1.5875 -1.5875 h 3.3073 3.30729 v -1.7198 -1.71979 h -1.5875 -1.5875 v -3.30729 -3.30729 h -3.30729 -3.3073 v 5.02708 5.02709 h -1.5875 -1.5875 v -5.02709 -5.02708 h -1.71979 -1.71979 v 1.71979 1.71979 h -1.5875 -1.5875 v -1.71979 -1.71979 h 1.5875 1.5875 v -1.5875 -1.5875 h 1.71979 1.71979 v 1.5875 1.5875 h 1.5875 1.5875 v -1.5875 -1.5875 h 4.8948 4.89479 v -4.89479 -4.89479 h 1.71979 1.71979 v -1.7198 -1.71979 h 4.89479 4.8948 v -1.5875 -1.5875 h -1.7198 -1.71979 v -1.5875 -1.5875 h -1.5875 -1.5875 v -1.71979 -1.71979 h -3.30729 -3.30729 v 1.71979 1.71979 h -1.5875 -1.5875 v 6.48229 6.4823 h -1.71979 -1.7198 v -1.5875 -1.5875 h -1.5875 -1.5875 v 1.5875 1.5875 h -3.30729 -3.30729 v 1.71979 1.71979 h -1.5875 -1.5875 v 1.5875 1.5875 h -1.71979 -1.71979 v -1.5875 -1.5875 h -3.175 -3.175 v -1.71979 -1.71979 h -3.3073 -3.307287 v -1.5875 -1.5875 h 3.307287 3.3073 v -1.7198 -1.71979 h -4.894795 -4.894792 v 1.71979 1.7198 H 68.462861 66.74307 v -3.3073 -3.30729 h -1.5875 -1.5875 v -1.5875 -1.5875 h -1.719792 -1.719792 v 1.5875 1.5875 h -3.175 -3.175 v -1.5875 -1.5875 h 3.175 3.175 v -3.30729 -3.30729 h 1.719792 1.719792 v 3.30729 3.30729 h 1.5875 1.5875 v 1.5875 1.5875 h 1.719791 1.719792 v -1.5875 -1.5875 h 1.5875 1.5875 v -1.71979 -1.71979 h 1.5875 1.587497 v 1.71979 1.71979 h 1.71979 1.7198 v 3.175 3.175 h 1.5875 1.5875 v -1.5875 -1.5875 h 1.5875 1.5875 v -3.30729 -3.30729 h -1.5875 -1.5875 v -1.5875 -1.5875 h -1.5875 -1.5875 v -1.71979 -1.7198 h 1.5875 1.5875 v 1.7198 1.71979 h 1.5875 1.5875 v 1.5875 1.5875 h 1.71979 1.71979 v -1.5875 -1.5875 h 1.5875 1.5875 v 1.5875 1.5875 h -1.5875 -1.5875 v 3.30729 3.30729 h -1.71979 -1.71979 v 1.5875 1.5875 h 5.02708 5.02708 v -1.5875 -1.5875 h 1.5875 1.5875 v -1.5875 -1.5875 h -1.5875 -1.5875 v -6.61458 -6.61459 h -1.71979 -1.71979 v -1.5875 -1.5875 h -1.5875 -1.5875 v 1.5875 1.5875 h -1.71979 -1.71979 v -3.30729 -3.30729 h -1.5875 -1.5875 v 1.71979 1.71979 h -1.5875 -1.5875 v 1.5875 1.5875 h -3.3073 -3.307287 v 1.5875 1.5875 h 1.5875 1.587497 v 1.7198 1.71979 h -1.587497 -1.5875 v -1.71979 -1.7198 h -1.5875 -1.5875 v 3.3073 3.30729 H 68.462861 66.74307 v -3.30729 -3.3073 h -4.894792 -4.894792 v 3.3073 3.30729 h -1.5875 -1.5875 v -11.50938 -11.50937 h 3.175 3.175 v -1.5875 -1.5875 h -3.175 -3.175 v -1.5875 -1.587504 h 1.5875 1.5875 v -1.71979 -1.7198 h -1.5875 -1.5875 v -3.175 -3.175 h 6.482292 6.482292 v 1.5875 1.5875 h 3.307291 3.307292 v -1.5875 -1.5875 h 1.5875 1.587497 v 1.5875 1.5875 h -1.587497 -1.5875 v 1.5875 1.5875 h 1.5875 1.587497 v 1.7198 1.71979 h 1.71979 1.7198 v -1.71979 -1.7198 h 3.175 3.175 v -8.20208 -8.20208 h 1.71979 1.71979 v -1.5875 -1.5875 h -3.30729 -3.30729 v 1.5875 1.5875 h -1.5875 -1.5875 v -4.89479 -4.8948 h 1.5875 1.5875 v -1.5875 -1.5875 h -1.5875 -1.5875 v -1.71979 -1.71979 h 1.5875 1.5875 v 1.71979 1.71979 h 1.5875 1.5875 v -1.71979 -1.71979 h 1.71979 1.71979 v 1.71979 1.71979 h 1.5875 1.5875 v -1.71979 -1.71979 h 1.71979 1.71979 v 3.30729 3.30729 h 1.5875 1.5875 v 3.3073 3.30729 h -1.5875 -1.5875 v 1.5875 1.5875 h 3.175 3.175 v -4.89479 -4.8948 h 1.7198 1.71979 v -3.30729 -3.30729 h 1.5875 1.5875 v 3.30729 3.30729 h 1.71979 1.71979 v -1.5875 -1.5875 h 1.5875 1.5875 v -1.71979 -1.71979 h 1.5875 1.5875 v 1.71979 1.71979 h -1.5875 -1.5875 v 1.5875 1.5875 h -1.5875 -1.5875 v 1.7198 1.71979 h 1.5875 1.5875 v 1.5875 1.5875 h 1.5875 1.5875 v -3.30729 -3.3073 h 1.71979 1.7198 v -3.30729 -3.30729 h 3.30729 3.30729 v 3.30729 3.30729 h 3.175 3.175 v 4.8948 4.89479 h -1.5875 -1.5875 v 1.71979 1.71979 h 1.5875 1.5875 v 3.30729 3.30729 h 1.71979 1.71979 v 1.5875 1.5875 h 1.5875 1.5875 v 3.3073 3.30729 h 1.71979 1.7198 v -4.89479 -4.8948 h 4.89479 4.89479 v 3.175 3.175 h 3.30729 3.30729 v 3.3073 3.307294 h -1.71979 -1.71979 v 1.5875 1.5875 h 1.71979 1.71979 v 1.71979 1.71979 h -1.71979 -1.71979 v -1.71979 -1.71979 h -3.30729 -3.30729 v -1.5875 -1.5875 h 3.30729 3.30729 v -1.5875 -1.587504 h -3.30729 -3.30729 v -1.71979 -1.7198 h -1.5875 -1.5875 v 3.3073 3.307294 h -4.8948 -4.89479 v 1.5875 1.5875 h 1.5875 1.5875 v 1.71979 1.71979 h 1.71979 1.7198 v -1.71979 -1.71979 h 1.5875 1.5875 v 1.71979 1.71979 h 3.30729 3.30729 v 1.5875 1.5875 h 3.30729 3.30729 v 3.30729 3.30729 h -1.71979 -1.71979 v 1.5875 1.5875 h 1.71979 1.71979 v 1.7198 1.71979 h -1.71979 -1.71979 v -1.71979 -1.7198 h -1.5875 -1.5875 v -1.5875 -1.5875 h -1.71979 -1.71979 v -3.30729 -3.30729 h -1.5875 -1.5875 v -1.5875 -1.5875 h -1.5875 -1.5875 v 1.5875 1.5875 h -1.7198 -1.71979 v 3.30729 3.30729 h 1.71979 1.7198 v -1.5875 -1.5875 h 1.5875 1.5875 v 1.5875 1.5875 h -1.5875 -1.5875 v 1.5875 1.5875 h 3.175 3.175 v 1.7198 1.71979 h 1.71979 1.71979 v 3.30729 3.30729 h 3.30729 3.30729 v 3.175 3.175 h -1.71979 -1.71979 v 3.30729 3.3073 h 1.71979 1.71979 v 1.71979 1.71979 h -1.71979 -1.71979 v -1.71979 -1.71979 h -1.5875 -1.5875 v -1.5875 -1.5875 h -1.71979 -1.71979 v 3.30729 3.30729 h 1.71979 1.71979 v 1.5875 1.5875 h -1.71979 -1.71979 v 1.5875 1.5875 h 1.71979 1.71979 v 1.71979 1.71979 h -1.71979 -1.71979 v 3.30729 3.3073 h -1.5875 -1.5875 v 1.5875 1.5875 h 3.30729 3.30729 v -1.5875 -1.5875 h 1.5875 1.5875 v 1.5875 1.5875 h -1.5875 -1.5875 v 1.5875 1.5875 h -9.92188 -9.92187 v -3.175 -3.175 h -1.5875 -1.5875 v -5.02709 -5.02708 h -3.30729 -3.30729 v 1.71979 1.71979 h -3.3073 -3.30729 v 1.5875 1.5875 h 5.02709 5.02708 v 3.30729 3.3073 h 1.5875 1.5875 v 1.5875 1.5875 h -3.30729 -3.30729 v -3.175 -3.175 h -1.5875 -1.5875 v 1.5875 1.5875 h -1.7198 -1.71979 v 1.5875 1.5875 h -1.5875 -1.5875 v -3.175 -3.175 h 1.5875 1.5875 v -1.7198 -1.71979 h -3.175 -3.175 v 1.71979 1.7198 h -1.71979 -1.71979 v 1.5875 1.5875 h 1.71979 1.71979 v 1.5875 1.5875 h -3.30729 -3.30729 z m 32.80833,-6.4823 v -1.71979 h 1.5875 1.5875 v 1.71979 1.7198 h 3.30729 3.3073 v -3.3073 -3.30729 h 1.5875 1.5875 v -1.71979 -1.71979 h -1.5875 -1.5875 v 1.71979 1.71979 h -1.5875 -1.5875 v 1.5875 1.5875 h -1.7198 -1.71979 v -1.5875 -1.5875 h -1.5875 -1.5875 v 1.5875 1.5875 h -1.71979 -1.71979 v 1.71979 1.7198 h 1.71979 1.71979 z m -26.19375,-3.30729 v -1.5875 h -1.71979 -1.71979 v 1.5875 1.5875 h 1.71979 1.71979 z m 6.35,-4.89479 v -3.30729 h -1.5875 -1.5875 v -1.5875 -1.5875 h 4.89479 4.8948 v 1.5875 1.5875 h 1.71979 1.71979 v -1.5875 -1.5875 h -1.71979 -1.71979 v -5.02708 -5.02709 h -1.5875 -1.5875 v 3.30729 3.3073 h -1.7198 -1.71979 v -1.5875 -1.5875 h -3.175 -3.175 v 4.89479 4.89479 h 1.5875 1.5875 v 3.30729 3.30729 h 1.5875 1.5875 z m 26.45834,-5.02708 v -4.89479 h -5.02709 -5.02708 v 4.89479 4.89479 h 5.02708 5.02709 z m -6.61459,0.13229 v -1.5875 h 1.5875 1.5875 v 1.5875 1.5875 h -1.5875 -1.5875 z m 12.96459,0 v -1.5875 h -1.5875 -1.5875 v 1.5875 1.5875 h 1.5875 1.5875 z m -62.17709,-4.89479 v -3.30729 h -1.71979 -1.71979 v -1.7198 -1.71979 h -1.5875 -1.5875 v 1.71979 1.7198 h -1.5875 -1.5875 v 1.5875 1.5875 h 3.175 3.175 v 1.71979 1.71979 h 1.71979 1.71979 z m 42.59792,-1.71979 v -1.5875 h -1.5875 -1.5875 v 1.5875 1.5875 h 1.5875 1.5875 z m 3.175,-6.61459 v -1.5875 h -1.5875 -1.5875 v 1.5875 1.5875 h 1.5875 1.5875 z m 23.01875,0 v -1.5875 h -1.5875 -1.5875 v 1.5875 1.5875 h 1.5875 1.5875 z m -82.02084,-3.175 v -1.5875 h -1.587497 -1.5875 v 1.5875 1.5875 h 1.5875 1.587497 z m 52.65209,0 v -1.5875 h 1.5875 1.5875 v -3.30729 -3.30729 h -3.30729 -3.30729 v -3.30729 -3.3073 h 1.71979 1.71979 v -4.89479 -4.89479 h -1.71979 -1.71979 v -3.30729 -3.30729 h -1.5875 -1.5875 v 4.89479 4.89479 h -1.7198 -1.71979 v -4.89479 -4.89479 h -1.5875 -1.5875 v 1.5875 1.5875 h -1.5875 -1.5875 v -1.5875 -1.5875 h -1.71979 -1.71979 v -3.307294 -3.3073 h 3.30729 3.30729 v 1.7198 1.71979 h 3.30729 3.3073 v -3.30729 -3.3073 h 4.89479 4.89479 v 1.5875 1.5875 h -3.30729 -3.30729 v 1.7198 1.71979 h 3.30729 3.30729 v 1.587504 1.5875 h -1.5875 -1.5875 v 1.5875 1.5875 h 3.175 3.175 v -1.5875 -1.5875 h 1.71979 1.71979 v -1.5875 -1.587504 h -1.71979 -1.71979 v -3.30729 -3.3073 h -1.5875 -1.5875 v -4.89479 -4.89479 h -1.5875 -1.5875 v -3.30729 -3.30729 h 1.5875 1.5875 v -1.5875 -1.5875 h -1.5875 -1.5875 v -1.71979 -1.7198 h -3.30729 -3.30729 v 3.3073 3.30729 h -1.7198 -1.71979 v 1.5875 1.5875 h -3.175 -3.175 v 1.71979 1.71979 h -1.71979 -1.71979 v 3.30729 3.30729 h -6.48229 -6.4823 v 3.175 3.175 h 4.8948 4.89479 v 4.894804 4.89479 h -1.71979 -1.7198 v 1.71979 1.71979 h 1.7198 1.71979 v -1.71979 -1.71979 h 3.30729 3.30729 v 3.30729 3.30729 h -1.71979 -1.71979 v 1.71979 1.71979 h -1.5875 -1.5875 v -1.71979 -1.71979 h -1.71979 -1.7198 v 1.71979 1.71979 h -1.5875 -1.5875 v -5.02708 -5.02708 h -1.5875 -1.5875 v 1.71979 1.71979 h -1.71979 -1.71979 v 3.30729 3.30729 h 1.71979 1.71979 v 1.5875 1.5875 h 1.5875 1.5875 v 4.8948 4.89479 h 1.5875 1.5875 v 1.71979 1.71979 h 1.7198 1.71979 v -3.30729 -3.30729 h 1.5875 1.5875 v -1.71979 -1.7198 h 1.71979 1.71979 v 1.7198 1.71979 h 1.5875 1.5875 v -1.71979 -1.7198 h -1.5875 -1.5875 v -1.5875 -1.5875 h 3.175 3.175 v 1.5875 1.5875 h 1.71979 1.7198 v 1.7198 1.71979 h -1.7198 -1.71979 v 1.5875 1.5875 h 1.71979 1.7198 v -1.5875 -1.5875 h 1.5875 1.5875 v 4.89479 4.89479 h 1.71979 1.71979 z M 102.7264,121.63303 v -3.3073 h 1.7198 1.71979 v 3.3073 3.30729 h -1.71979 -1.7198 z m 6.61459,-4.8948 v -1.5875 h 1.71979 1.71979 v 1.5875 1.5875 h -1.71979 -1.71979 z m 13.22917,0 v -1.5875 h 1.5875 1.5875 v 1.5875 1.5875 h -1.5875 -1.5875 z m -6.61459,-3.30729 v -1.71979 h 1.5875 1.5875 v 1.71979 1.71979 h -1.5875 -1.5875 z m -9.78958,-19.711464 v -1.5875 h 1.5875 1.5875 v 1.5875 1.5875 h -1.5875 -1.5875 z m 6.61458,-6.48229 v -4.89479 h 1.5875 1.5875 v 1.5875 1.5875 h 1.5875 1.5875 v -3.30729 -3.30729 h 3.30729 3.3073 v 1.71979 1.71979 h 1.71979 1.71979 v 1.5875 1.5875 h -1.71979 -1.71979 v -1.5875 -1.5875 h -1.5875 -1.5875 v 4.89479 4.89479 h -4.8948 -4.89479 z m 12.96459,-13.09687 v -1.5875 h 1.71979 1.71979 v 1.5875 1.5875 h -1.71979 -1.71979 z m 26.19375,57.282294 v -3.30729 h -1.5875 -1.5875 v -1.5875 -1.5875 h -3.3073 -3.30729 v -3.30729 -3.3073 h -1.5875 -1.5875 v 4.8948 4.89479 h -1.71979 -1.71979 v 1.71979 1.71979 h 1.71979 1.71979 v 1.5875 1.5875 h 6.48229 6.4823 z m -9.78959,-1.5875 v -1.71979 h 1.71979 1.7198 v 1.71979 1.71979 h -1.7198 -1.71979 z M 60.128486,113.43094 v -4.89479 h 1.719792 1.719792 v 1.5875 1.5875 h 1.5875 1.5875 v 1.71979 1.71979 h -1.5875 -1.5875 v 1.5875 1.5875 h 1.5875 1.5875 v -1.5875 -1.5875 h 1.719791 1.719792 v 1.5875 1.5875 h 1.5875 1.5875 v -1.5875 -1.5875 h 3.307287 3.3073 v -1.71979 -1.71979 h -3.3073 -3.307287 v 1.71979 1.71979 h -1.5875 -1.5875 v -1.71979 -1.71979 H 68.462861 66.74307 v -8.20208 -8.202094 h -1.5875 -1.5875 v -1.5875 -1.5875 h -3.307292 -3.307292 v 1.5875 1.5875 h 1.5875 1.5875 v 1.7198 1.71979 h 1.719792 1.719792 v 3.175004 3.175 h -1.719792 -1.719792 v 1.71979 1.71979 h -1.5875 -1.5875 v 4.89479 4.89479 h 1.5875 1.5875 z m 75.406254,0 v -1.71979 h 3.30729 3.30729 v -1.5875 -1.5875 h -4.89479 -4.89479 v 3.30729 3.30729 h 1.5875 1.5875 z m -45.77292,-5.02708 v -3.30729 h 1.5875 1.5875 v -1.5875 -1.5875 h 1.71979 1.71979 v -1.5875 -1.587504 h -3.30729 -3.30729 v 3.175004 3.175 h -1.71979 -1.71979 v 3.30729 3.30729 h 1.71979 1.71979 z m -13.22917,-1.5875 v -1.71979 h 1.71979 1.7198 v -1.5875 -1.5875 h 1.5875 1.5875 v -1.5875 -1.587504 h -1.5875 -1.5875 v 1.587504 1.5875 h -1.7198 -1.71979 v -1.5875 -1.587504 h -3.174997 -3.175 v 3.175004 3.175 h 1.5875 1.5875 v 1.71979 1.71979 h 1.5875 1.587497 z m -3.174997,-3.30729 v -1.5875 h 1.5875 1.587497 v 1.5875 1.5875 h -1.587497 -1.5875 z m 29.368747,-3.175 v -1.587504 h -1.5875 -1.5875 v 1.587504 1.5875 h 1.5875 1.5875 z m -9.78958,-6.614594 v -1.5875 h -1.5875 -1.5875 v 1.5875 1.5875 h 1.5875 1.5875 z m 0,-8.06979 v -3.30729 h 1.71979 1.71979 v 1.5875 1.5875 h 1.5875 1.5875 v -1.5875 -1.5875 h -1.5875 -1.5875 v -1.71979 -1.71979 h -1.71979 -1.71979 v 1.71979 1.71979 h -1.5875 -1.5875 v 3.30729 3.30729 h 1.5875 1.5875 z m 13.22917,-1.71979 v -1.5875 h -1.71979 -1.7198 v 1.5875 1.5875 h 1.7198 1.71979 z m 3.175,-6.61458 v -1.5875 h 1.71979 1.71979 v -1.5875 -1.5875 h -1.71979 -1.71979 v -1.71979 -1.7198 h -1.5875 -1.5875 v 1.7198 1.71979 h 1.5875 1.5875 v 1.5875 1.5875 h -1.5875 -1.5875 v 1.5875 1.5875 h 1.5875 1.5875 z m -16.40417,-3.175 v -1.5875 h 1.71979 1.71979 v -1.71979 -1.7198 h -3.30729 -3.30729 v 3.3073 3.30729 h 1.5875 1.5875 z m 65.61667,78.581254 v -1.5875 h 1.71979 1.71979 v 1.5875 1.5875 h -1.71979 -1.71979 z M 53.778486,142.93199 v -1.5875 h 1.5875 1.5875 v -1.7198 -1.71979 h 1.5875 1.5875 v 1.71979 1.7198 h 1.719792 1.719792 v 1.5875 1.5875 h -1.719792 -1.719792 v -1.5875 -1.5875 h -1.5875 -1.5875 v 1.5875 1.5875 h -1.5875 -1.5875 z M 79.97224,90.544476 v -1.5875 h 1.5875 1.5875 v 1.5875 1.5875 h -1.5875 -1.5875 z m 78.58125,0 v -1.5875 h 1.71979 1.71979 v 1.5875 1.5875 h -1.71979 -1.71979 z M 53.778486,74.140316 V 62.763226 H 65.15557 76.53265 v 11.37709 11.37708 H 65.15557 53.778486 Z m 19.579167,0 v -8.20209 H 65.15557 56.953486 v 8.20209 8.20208 h 8.202084 8.202083 z m -13.229167,-0.13229 v -4.8948 h 4.894792 4.894792 v 4.8948 4.89479 h -4.894792 -4.894792 z m 19.843754,9.92187 v -1.5875 h 1.5875 1.5875 v 1.5875 1.5875 h -1.5875 -1.5875 z m 59.00208,-9.78958 v -11.37709 h 11.37709 11.37708 v 11.37709 11.37708 h -11.37708 -11.37709 z m 19.57917,0 v -8.20209 h -8.20208 -8.20209 v 8.20209 8.20208 h 8.20209 8.20208 z m -12.96458,-0.13229 v -4.8948 h 4.89479 4.89479 v 4.8948 4.89479 h -4.89479 -4.89479 z m -13.22917,-9.78959 v -1.71979 h 1.5875 1.5875 v 1.71979 1.71979 h -1.5875 -1.5875 z"
       id="path313" /></g></svg>
