<?xml version="1.0" encoding="iso-8859-1"?>
<!-- Uploaded to: SVG Repo, www.svgrepo.com, Generator: SVG Repo Mixer Tools -->
<svg fill="#000000" version="1.1" id="Layer_1" xmlns="http://www.w3.org/2000/svg" xmlns:xlink="http://www.w3.org/1999/xlink" 
	 viewBox="0 0 496 496" xml:space="preserve">
<g>
	<g>
		<g>
			<rect x="80" y="400" width="16" height="40"/>
			<rect x="112" y="400" width="16" height="32"/>
			<rect x="144" y="400" width="16" height="24"/>
			<rect x="400" y="400" width="16" height="40"/>
			<rect x="368" y="400" width="16" height="32"/>
			<rect x="336" y="400" width="16" height="24"/>
			<rect x="240" y="424" width="16" height="40"/>
			<rect x="208" y="432" width="16" height="32"/>
			<rect x="176" y="440" width="16" height="24"/>
			<rect x="272" y="432" width="16" height="32"/>
			<rect x="304" y="440" width="16" height="24"/>
			<path d="M376,256c-13.232,0-24,10.768-24,24s10.768,24,24,24s24-10.768,24-24S389.232,256,376,256z M376,288
				c-4.416,0-8-3.584-8-8c0-4.416,3.584-8,8-8c4.416,0,8,3.584,8,8C384,284.416,380.416,288,376,288z"/>
			<path d="M328,256c-13.232,0-24,10.768-24,24s10.768,24,24,24s24-10.768,24-24S341.232,256,328,256z M328,288
				c-4.416,0-8-3.584-8-8c0-4.416,3.584-8,8-8c4.416,0,8,3.584,8,8C336,284.416,332.416,288,328,288z"/>
			<path d="M120,304c13.232,0,24-10.768,24-24s-10.768-24-24-24s-24,10.768-24,24S106.768,304,120,304z M120,272
				c4.416,0,8,3.584,8,8c0,4.416-3.584,8-8,8s-8-3.584-8-8C112,275.584,115.584,272,120,272z"/>
			<path d="M168,304c13.232,0,24-10.768,24-24s-10.768-24-24-24s-24,10.768-24,24S154.768,304,168,304z M168,272
				c4.416,0,8,3.584,8,8c0,4.416-3.584,8-8,8s-8-3.584-8-8C160,275.584,163.584,272,168,272z"/>
			<path d="M224,96H104c-8.824,0-16,7.176-16,16v80c0,8.824,7.176,16,16,16h120c8.824,0,16-7.176,16-16v-80
				C240,103.176,232.824,96,224,96z M104,192v-80h120l0.016,80H104z"/>
			<path d="M392,96H272c-8.824,0-16,7.176-16,16v80c0,8.824,7.176,16,16,16h120c8.824,0,16-7.176,16-16v-80
				C408,103.176,400.824,96,392,96z M272,192v-80h120l0.016,80H272z"/>
			<path d="M419.312,480L456,443.312V352h-16v-39.016l15.76-63.048L456,224h-16V78.48c0-30.784-21.952-57.232-52.2-62.896
				L321.56,3.16C310.408,1.064,299,0,287.648,0h-79.296C197,0,185.592,1.064,174.448,3.16l-66.24,12.424
				C77.952,21.24,56,47.696,56,78.48V224H40v24l16,64.984V352H40v91.312L76.688,480H0v16h496v-16H419.312z M440,240v7.016
				l-15.76,63.048L424.04,352H320v-16h32v-16h-32h-8h-56v-80h16v16h16v-16h136h8H440z M304,336v41.752l-56,14l-56-14V336H304z
				 M279.792,16h7.856c10.368,0,20.784,0.968,30.952,2.872l66.24,12.424c17.736,3.32,31.544,16.224,36.784,32.704H279.792
				c5.08-6.704,8.208-14.96,8.208-24S284.872,22.704,279.792,16z M248,16c13.232,0,24,10.768,24,24s-10.768,24-24,24
				s-24-10.768-24-24S234.768,16,248,16z M111.16,31.296l66.24-12.424C187.568,16.968,197.984,16,208.352,16h7.856
				C211.128,22.704,208,30.96,208,40s3.128,17.296,8.208,24H74.376C79.616,47.52,93.424,34.616,111.16,31.296z M72,80h352v144H72V80
				z M56,240h8h8h136v16h16v-16h16v80h-56h-8h-32v16h32v16H72v-40l-16-64.984V240z M99.312,480L56,436.688V368h120v22.248l72,18
				l72-18V368h120v68.688L396.688,480H99.312z"/>
		</g>
	</g>
</g>
</svg>